<svg width="1200" height="631" viewBox="0 0 1200 631" fill="none" xmlns="http://www.w3.org/2000/svg">
<rect width="1200" height="630" transform="translate(0 0.305664)" fill="#19AFDD"/>
<path d="M411.389 277.785H386.548V351.991H411.389V277.785Z" fill="white"/>
<path d="M353.425 241.452C345.618 241.452 339.349 247.724 339.349 255.535V278.377C346.091 281.69 350.704 288.673 350.704 296.721C350.704 304.769 346.091 311.633 339.349 315.065V337.906C339.349 345.717 345.618 351.99 353.425 351.99C361.232 351.99 367.501 345.717 367.501 337.906V255.535C367.501 247.724 361.232 241.452 353.425 241.452Z" fill="white"/>
<path d="M411.389 253.878C411.389 260.743 405.829 266.305 398.968 266.305C392.107 266.305 386.548 260.743 386.548 253.878C386.548 247.014 392.107 241.452 398.968 241.452C405.829 241.452 411.389 247.014 411.389 253.878Z" fill="white"/>
<path d="M488.986 316.603C486.383 325.243 478.34 331.515 468.876 331.515C457.284 331.515 447.821 322.047 447.821 310.449C447.821 298.851 457.284 289.383 468.876 289.383C478.34 289.383 486.383 295.655 488.986 304.295H512.644C509.686 282.755 491.233 266.305 468.876 266.305C444.509 266.305 424.636 286.069 424.636 310.568C424.636 335.066 444.391 354.83 468.876 354.83C491.233 354.83 509.568 338.261 512.644 316.84H488.986V316.603Z" fill="white"/>
<path d="M275 337.906C275 345.717 281.269 351.99 289.076 351.99C296.884 351.99 303.153 345.717 303.153 337.906V310.804H330.123C337.93 310.804 344.199 304.532 344.199 296.721C344.199 288.91 337.93 282.637 330.123 282.637H303.153V255.535C303.153 247.724 296.884 241.452 289.076 241.452C281.269 241.452 275 247.724 275 255.535V337.906Z" fill="white"/>
<path d="M633.299 310.449V351.99H656.484V310.449C656.484 298.851 665.829 289.383 677.421 289.383V266.187C653.054 266.187 633.181 285.951 633.181 310.449H633.299Z" fill="white"/>
<path d="M779.149 351.99C773.589 346.428 772.524 333.172 772.524 310.449C772.524 310.449 772.524 310.449 772.524 310.331V241.452H749.34V271.512C743.07 268.08 735.973 266.187 728.284 266.187C703.917 266.187 684.044 285.951 684.044 310.449C684.044 334.948 703.798 354.712 728.284 354.712C738.22 354.712 747.329 351.517 754.663 345.954C761.405 350.57 768.503 351.99 779.03 351.99H779.149ZM728.402 331.397C716.81 331.397 707.465 322.048 707.465 310.449C707.465 298.851 716.928 289.383 728.402 289.383C739.877 289.383 749.458 298.733 749.458 310.449C749.458 322.166 739.995 331.397 728.402 331.397Z" fill="white"/>
<path d="M620.878 351.99C615.318 346.428 614.253 333.172 614.253 310.449C614.253 286.069 594.499 266.187 570.013 266.187C545.527 266.187 525.773 285.951 525.773 310.449C525.773 334.948 545.527 354.712 570.013 354.712C579.949 354.712 589.058 351.517 596.392 345.954C603.134 350.57 610.232 351.99 620.759 351.99H620.878ZM570.131 331.397C558.539 331.397 549.076 322.048 549.076 310.449C549.076 298.851 558.539 289.383 570.131 289.383C581.724 289.383 591.069 298.733 591.069 310.449C591.069 322.166 581.724 331.397 570.131 331.397Z" fill="white"/>
<path d="M798.667 294.828C794.527 299.088 792.634 303.941 791.451 307.965V351.872H816.292V285.952C811.087 286.662 804.936 288.2 798.667 294.709V294.828Z" fill="white"/>
<path d="M852.017 269.855C841.607 280.625 824.692 277.785 817.003 278.495C809.551 279.205 797.13 282.637 792.754 292.105C792.281 293.17 791.571 292.697 791.571 291.987V231.155C791.571 229.143 791.807 225.829 792.162 223.936C793.463 217.9 796.776 213.048 801.034 209.852C805.292 206.657 810.497 205 815.82 205C817.595 205 819.369 205.236 821.143 205.592C823.982 206.183 826.466 207.13 828.595 208.432C833.209 211.154 836.284 215.178 837.94 219.675C839.241 223.226 839.715 227.013 839.241 230.682C842.199 230.682 846.812 230.918 852.017 234.705C859.232 239.795 864.555 256.719 852.017 269.974V269.855Z" fill="white"/>
<path d="M353.425 241.452C345.618 241.452 339.349 247.724 339.349 255.535V278.377C346.091 281.69 350.704 288.673 350.704 296.721C350.704 304.769 346.091 311.633 339.349 315.065V337.906C339.349 345.717 345.618 351.99 353.425 351.99C361.232 351.99 367.501 345.717 367.501 337.906V255.535C367.501 247.724 361.232 241.452 353.425 241.452Z" fill="white"/>
<path d="M275 337.906C275 345.717 281.269 351.99 289.076 351.99C296.884 351.99 303.153 345.717 303.153 337.906V310.804H330.123C337.93 310.804 344.199 304.532 344.199 296.721C344.199 288.91 337.93 282.637 330.123 282.637H303.153V255.535C303.153 247.724 296.884 241.452 289.076 241.452C281.269 241.452 275 247.724 275 255.535V337.906Z" fill="white"/>
<path d="M353.425 241.452C345.618 241.452 339.349 247.724 339.349 255.535V278.377C346.091 281.69 350.704 288.673 350.704 296.721C350.704 304.769 346.091 311.633 339.349 315.065V337.906C339.349 345.717 345.618 351.99 353.425 351.99C361.232 351.99 367.501 345.717 367.501 337.906V255.535C367.501 247.724 361.232 241.452 353.425 241.452Z" fill="white"/>
<path d="M275 337.906C275 345.717 281.269 351.99 289.076 351.99C296.884 351.99 303.153 345.717 303.153 337.906V310.804H330.123C337.93 310.804 344.199 304.532 344.199 296.721C344.199 288.91 337.93 282.637 330.123 282.637H303.153V255.535C303.153 247.724 296.884 241.452 289.076 241.452C281.269 241.452 275 247.724 275 255.535V337.906Z" fill="white"/>
<path d="M914.946 300.034H896.966V282.045C896.966 276.482 892.471 271.985 886.911 271.985C881.352 271.985 876.857 276.482 876.857 282.045V300.034H858.877C853.317 300.034 848.822 304.531 848.822 310.094C848.822 315.656 853.317 320.153 858.877 320.153H876.857V338.142C876.857 343.705 881.352 348.202 886.911 348.202C892.471 348.202 896.966 343.705 896.966 338.142V320.153H914.946C920.506 320.153 925.001 315.656 925.001 310.094C925.001 304.531 920.506 300.034 914.946 300.034Z" fill="white"/>
<path d="M561.991 415.206C561.383 415.444 560.827 415.761 559.558 415.761C557.205 415.761 555.539 414.043 555.539 411.584V404.445H553.186V402.039H555.539V398.258H558.289V402.039H561.806V404.445H558.289V411.584C558.289 412.588 558.897 413.329 559.743 413.355C560.404 413.382 561.118 413.012 561.145 412.985L561.991 415.206ZM573.967 407.829C573.729 406.058 572.724 404.207 570.291 404.207C568.176 404.207 566.563 405.793 566.272 407.856L573.967 407.829ZM563.628 408.887C563.628 404.788 566.352 401.906 570.238 401.906C574.575 401.906 575.87 405.397 575.976 405.661C576.796 407.644 576.505 409.706 576.505 409.944H566.272C566.59 412.086 568.335 413.54 570.265 413.54C572.935 413.54 573.755 411.927 573.861 411.769L576.055 412.774C576.055 412.774 574.786 415.841 570.238 415.841C566.352 415.841 563.628 412.959 563.628 408.887ZM585.528 413.62C587.722 413.62 589.626 411.61 589.652 408.94C589.626 406.269 587.722 404.26 585.528 404.26C583.148 404.26 581.535 406.137 581.535 408.94C581.535 411.716 583.148 413.62 585.528 413.62ZM578.785 408.94C578.785 404.868 581.482 401.986 585.342 401.986C586.85 401.986 588.489 402.726 589.599 404.365V401.933H592.349V415.761L589.599 415.788V413.487C588.436 415.18 586.876 415.894 585.342 415.894C581.482 415.894 578.785 413.012 578.785 408.94ZM613.484 407.856C613.484 405.74 612.268 404.286 610.549 404.286C608.645 404.286 607.297 405.793 607.297 407.697V415.761H604.547V407.856C604.547 405.74 603.357 404.286 601.665 404.286C599.735 404.286 598.386 405.978 598.386 408.041V415.761H595.637V401.933H598.386V404.286C599.153 402.911 600.634 401.959 601.982 401.959C603.701 401.959 605.42 403.123 606.16 404.736C607.059 403.123 608.91 401.959 610.655 401.959C613.934 401.959 616.234 404.339 616.234 407.723V415.761H613.484V407.856ZM636.869 396.301L644.827 415.761H641.866L639.698 410.447H630.787L628.566 415.761H625.578L633.696 396.301H636.869ZM631.765 408.067H638.693L635.282 399.685L631.765 408.067Z" fill="white"/>
<path d="M279.407 405.509H529.491" stroke="white" stroke-width="1.65254" stroke-linecap="round"/>
<path d="M670.508 405.509H920.593" stroke="white" stroke-width="1.65254" stroke-linecap="round"/>
</svg>
