<svg width="24" height="32" viewBox="0 0 24 32" fill="none" xmlns="http://www.w3.org/2000/svg">
<path d="M21.3391 22.9994C17.6643 26.8186 11.6927 25.8114 8.97836 26.0632C6.34753 26.315 1.96281 27.5321 0.417724 30.8897C0.250687 31.2674 0.00012207 31.0996 0.00012207 30.8477V9.2753C0.00012207 8.56182 0.0836532 7.38667 0.208931 6.71515C0.668282 4.5747 1.83754 2.85394 3.34087 1.72076C4.8442 0.587576 6.68161 0 8.56077 0C9.18716 0 9.81354 0.0839394 10.4399 0.209849C11.4421 0.419697 12.3191 0.755455 13.0708 1.21712C14.6994 2.18242 15.7851 3.60939 16.3697 5.20424C16.8291 6.46333 16.9961 7.80637 16.8291 9.10743C17.8731 9.10743 19.5017 9.19137 21.3391 10.5344C23.8864 12.3391 25.7656 18.3408 21.3391 23.0414V22.9994Z" fill="#19AFDD"/>
</svg>
