<svg width="165" height="158" viewBox="0 0 165 158" fill="none" xmlns="http://www.w3.org/2000/svg">
<circle cx="92" cy="85" r="72.5" stroke="#CAE7EF"/>
<circle cx="73" cy="73" r="73" fill="#CAE7EF"/>
<circle cx="58.1765" cy="61.147" r="13.0593" fill="white" stroke="#19AFDD" stroke-width="2.99912"/>
<mask id="path-4-inside-1_510_572" fill="white">
<path d="M77.3669 105.309C81.2414 105.309 84.4725 102.115 83.4657 98.3735C82.261 93.8969 79.8997 89.7702 76.5647 86.4352C71.5591 81.4296 64.7701 78.6175 57.6912 78.6175C50.6122 78.6175 43.8232 81.4296 38.8177 86.4352C35.4827 89.7702 33.1213 93.8969 31.9167 98.3735C30.9098 102.115 34.1409 105.309 38.0155 105.309L57.6912 105.309H77.3669Z"/>
</mask>
<path d="M77.3669 105.309C81.2414 105.309 84.4725 102.115 83.4657 98.3735C82.261 93.8969 79.8997 89.7702 76.5647 86.4352C71.5591 81.4296 64.7701 78.6175 57.6912 78.6175C50.6122 78.6175 43.8232 81.4296 38.8177 86.4352C35.4827 89.7702 33.1213 93.8969 31.9167 98.3735C30.9098 102.115 34.1409 105.309 38.0155 105.309L57.6912 105.309H77.3669Z" fill="white" stroke="#19AFDD" stroke-width="5.99823" mask="url(#path-4-inside-1_510_572)"/>
<path d="M79.5295 92.2057H85.0203C89.3086 92.2057 92.785 88.7293 92.785 84.441V50.7221" stroke="#19AFDD" stroke-width="2.99912" stroke-linecap="round" stroke-linejoin="round"/>
<path d="M80.0584 38.2616C80.0584 36.1839 81.7427 34.4996 83.8204 34.4996H101.749C103.827 34.4996 105.511 36.1839 105.511 38.2616V51.1233C105.511 56.7527 100.947 61.3162 95.318 61.3162H90.2513C84.6219 61.3162 80.0584 56.7527 80.0584 51.1233V38.2616Z" fill="white" stroke="#19AFDD" stroke-width="2.99912"/>
<path fill-rule="evenodd" clip-rule="evenodd" d="M95.0335 41.7519C95.0335 40.7833 94.2483 39.998 93.2797 39.998C92.311 39.998 91.5258 40.7833 91.5258 41.7519V45.259H88.018C87.0494 45.259 86.2642 46.0443 86.2642 47.0129C86.2642 47.9815 87.0494 48.7668 88.018 48.7668H91.5258V52.2751C91.5258 53.2438 92.311 54.029 93.2797 54.029C94.2483 54.029 95.0335 53.2438 95.0335 52.2751V48.7668H98.5412C99.5099 48.7668 100.295 47.9815 100.295 47.0129C100.295 46.0443 99.5099 45.259 98.5412 45.259H95.0335V41.7519Z" fill="#19AFDD"/>
</svg>
