<svg width="23" height="24" viewBox="0 0 23 24" fill="none" xmlns="http://www.w3.org/2000/svg">
<path fill-rule="evenodd" clip-rule="evenodd" d="M18.2032 10.4516C18.2032 15.0511 14.4745 18.7798 9.8749 18.7798C5.27532 18.7798 1.54663 15.0511 1.54663 10.4516C1.54663 5.85198 5.27532 2.12329 9.8749 2.12329C14.4745 2.12329 18.2032 5.85198 18.2032 10.4516ZM19.7498 10.4516C19.7498 15.9053 15.3287 20.3265 9.8749 20.3265C4.42115 20.3265 0 15.9053 0 10.4516C0 4.99781 4.42115 0.57666 9.8749 0.57666C15.3287 0.57666 19.7498 4.99781 19.7498 10.4516ZM18.5535 18.037C18.2515 17.735 17.7619 17.735 17.4599 18.037C17.1579 18.3389 17.1579 18.8286 17.4599 19.1306L21.5261 23.1967C21.828 23.4987 22.3177 23.4987 22.6197 23.1967C22.9217 22.8947 22.9217 22.4051 22.6197 22.1031L18.5535 18.037Z" fill="#BFBFBF"/>
</svg>
