<svg width="80" height="80" viewBox="0 0 80 80" fill="none" xmlns="http://www.w3.org/2000/svg">
<circle cx="40" cy="40" r="40" fill="white"/>
<path d="M9.81345 44.7292C9.81345 50.2659 14.3019 54.7543 19.8386 54.7543H27.9946C30.2666 54.7543 32.4734 55.5133 34.2647 56.9107C37.3172 59.292 41.6173 59.2865 44.6797 56.9099C46.4742 55.5173 48.6898 54.7543 50.9633 54.7543H59.1613C64.698 54.7543 69.1864 50.2659 69.1864 44.7292V32.8892C69.1864 27.3525 64.698 22.8641 59.1613 22.8641H19.8386C14.3019 22.8641 9.81345 27.3525 9.81345 32.8892V44.7292Z" fill="white" stroke="#BFBFBF" stroke-width="1.72847"/>
<path d="M26.9426 37.9663H25.2842V42.918H26.9426V37.9663Z" fill="#BFBFBF"/>
<path d="M23.0729 35.5417C22.5516 35.5417 22.1331 35.9603 22.1331 36.4815V38.0058C22.5832 38.2269 22.8912 38.6928 22.8912 39.2299C22.8912 39.7669 22.5832 40.2249 22.1331 40.454V41.9782C22.1331 42.4994 22.5516 42.918 23.0729 42.918C23.5941 42.918 24.0127 42.4994 24.0127 41.9782V36.4815C24.0127 35.9603 23.5941 35.5417 23.0729 35.5417Z" fill="#BFBFBF"/>
<path d="M26.9426 36.371C26.9426 36.829 26.5715 37.2002 26.1134 37.2002C25.6554 37.2002 25.2842 36.829 25.2842 36.371C25.2842 35.9129 25.6554 35.5417 26.1134 35.5417C26.5715 35.5417 26.9426 35.9129 26.9426 36.371Z" fill="#BFBFBF"/>
<path d="M32.1234 40.5566C31.9496 41.1331 31.4126 41.5517 30.7808 41.5517C30.0068 41.5517 29.375 40.9199 29.375 40.1459C29.375 39.372 30.0068 38.7402 30.7808 38.7402C31.4126 38.7402 31.9496 39.1588 32.1234 39.7353H33.7029C33.5054 38.2979 32.2734 37.2002 30.7808 37.2002C29.1539 37.2002 27.8271 38.5191 27.8271 40.1538C27.8271 41.7886 29.146 43.1075 30.7808 43.1075C32.2734 43.1075 33.4975 42.0018 33.7029 40.5724H32.1234V40.5566Z" fill="#BFBFBF"/>
<path d="M17.8369 41.9782C17.8369 42.4994 18.2555 42.918 18.7767 42.918C19.2979 42.918 19.7165 42.4994 19.7165 41.9782V40.1696H21.5171C22.0384 40.1696 22.4569 39.7511 22.4569 39.2299C22.4569 38.7086 22.0384 38.2901 21.5171 38.2901H19.7165V36.4815C19.7165 35.9603 19.2979 35.5417 18.7767 35.5417C18.2555 35.5417 17.8369 35.9603 17.8369 36.4815V41.9782Z" fill="#BFBFBF"/>
<path d="M41.7584 40.146V42.918H43.3063V40.146C43.3063 39.3721 43.9302 38.7403 44.7041 38.7403V37.1924C43.0773 37.1924 41.7505 38.5113 41.7505 40.146H41.7584Z" fill="#BFBFBF"/>
<path d="M51.4958 42.918C51.1246 42.5468 51.0535 41.6623 51.0535 40.146C51.0535 40.146 51.0535 40.146 51.0535 40.1381V35.5417H49.5056V37.5477C49.0871 37.3187 48.6132 37.1923 48.0999 37.1923C46.473 37.1923 45.1462 38.5112 45.1462 40.146C45.1462 41.7807 46.4651 43.0996 48.0999 43.0996C48.7633 43.0996 49.3714 42.8864 49.861 42.5152C50.3112 42.8232 50.785 42.918 51.4879 42.918H51.4958ZM48.1078 41.5438C47.3338 41.5438 46.7099 40.9199 46.7099 40.146C46.7099 39.372 47.3417 38.7402 48.1078 38.7402C48.8738 38.7402 49.5135 39.3641 49.5135 40.146C49.5135 40.9278 48.8817 41.5438 48.1078 41.5438Z" fill="#BFBFBF"/>
<path d="M40.9291 42.918C40.558 42.5469 40.4869 41.6623 40.4869 40.146C40.4869 38.5192 39.168 37.1924 37.5332 37.1924C35.8985 37.1924 34.5796 38.5113 34.5796 40.146C34.5796 41.7808 35.8985 43.0997 37.5332 43.0997C38.1966 43.0997 38.8047 42.8864 39.2944 42.5153C39.7445 42.8233 40.2184 42.918 40.9212 42.918H40.9291ZM37.5411 41.5439C36.7672 41.5439 36.1354 40.92 36.1354 40.146C36.1354 39.3721 36.7672 38.7403 37.5411 38.7403C38.3151 38.7403 38.939 39.3642 38.939 40.146C38.939 40.9279 38.3151 41.5439 37.5411 41.5439Z" fill="#BFBFBF"/>
<path d="M52.7989 39.1035C52.5225 39.3878 52.3961 39.7116 52.3171 39.9802V42.9101H53.9756V38.5112C53.6281 38.5586 53.2174 38.6613 52.7989 39.0956V39.1035Z" fill="#BFBFBF"/>
<path d="M56.3608 37.4372C55.6658 38.1558 54.5365 37.9663 54.0231 38.0137C53.5256 38.0611 52.6964 38.2901 52.4042 38.9219C52.3726 38.993 52.3252 38.9614 52.3252 38.914V34.8547C52.3252 34.7205 52.341 34.4993 52.3647 34.373C52.4516 33.9702 52.6727 33.6464 52.957 33.4332C53.2413 33.2199 53.5888 33.1094 53.9442 33.1094C54.0626 33.1094 54.1811 33.1252 54.2996 33.1489C54.4891 33.1883 54.6549 33.2515 54.7971 33.3384C55.1051 33.52 55.3104 33.7886 55.421 34.0887C55.5079 34.3256 55.5395 34.5783 55.5079 34.8231C55.7053 34.8231 56.0133 34.8389 56.3608 35.0916C56.8425 35.4312 57.1979 36.5606 56.3608 37.4451V37.4372Z" fill="#BFBFBF"/>
<path d="M23.0729 35.5417C22.5516 35.5417 22.1331 35.9603 22.1331 36.4815V38.0058C22.5832 38.2269 22.8912 38.6928 22.8912 39.2299C22.8912 39.7669 22.5832 40.2249 22.1331 40.454V41.9782C22.1331 42.4994 22.5516 42.918 23.0729 42.918C23.5941 42.918 24.0127 42.4994 24.0127 41.9782V36.4815C24.0127 35.9603 23.5941 35.5417 23.0729 35.5417Z" fill="#BFBFBF"/>
<path d="M17.8369 41.9782C17.8369 42.4994 18.2555 42.918 18.7767 42.918C19.2979 42.918 19.7165 42.4994 19.7165 41.9782V40.1696H21.5171C22.0384 40.1696 22.4569 39.7511 22.4569 39.2299C22.4569 38.7086 22.0384 38.2901 21.5171 38.2901H19.7165V36.4815C19.7165 35.9603 19.2979 35.5417 18.7767 35.5417C18.2555 35.5417 17.8369 35.9603 17.8369 36.4815V41.9782Z" fill="#BFBFBF"/>
<path d="M23.0729 35.5417C22.5516 35.5417 22.1331 35.9603 22.1331 36.4815V38.0058C22.5832 38.2269 22.8912 38.6928 22.8912 39.2299C22.8912 39.7669 22.5832 40.2249 22.1331 40.454V41.9782C22.1331 42.4994 22.5516 42.918 23.0729 42.918C23.5941 42.918 24.0127 42.4994 24.0127 41.9782V36.4815C24.0127 35.9603 23.5941 35.5417 23.0729 35.5417Z" fill="#BFBFBF"/>
<path d="M17.8369 41.9782C17.8369 42.4994 18.2555 42.918 18.7767 42.918C19.2979 42.918 19.7165 42.4994 19.7165 41.9782V40.1696H21.5171C22.0384 40.1696 22.4569 39.7511 22.4569 39.2299C22.4569 38.7086 22.0384 38.2901 21.5171 38.2901H19.7165V36.4815C19.7165 35.9603 19.2979 35.5417 18.7767 35.5417C18.2555 35.5417 17.8369 35.9603 17.8369 36.4815V41.9782Z" fill="#BFBFBF"/>
<path d="M60.5621 39.451H59.3617V38.2506C59.3617 37.8794 59.0616 37.5793 58.6904 37.5793C58.3193 37.5793 58.0192 37.8794 58.0192 38.2506V39.451H56.8187C56.4476 39.451 56.1475 39.7511 56.1475 40.1223C56.1475 40.4935 56.4476 40.7936 56.8187 40.7936H58.0192V41.994C58.0192 42.3652 58.3193 42.6653 58.6904 42.6653C59.0616 42.6653 59.3617 42.3652 59.3617 41.994V40.7936H60.5621C60.9333 40.7936 61.2334 40.4935 61.2334 40.1223C61.2334 39.7511 60.9333 39.451 60.5621 39.451Z" fill="#BFBFBF"/>
</svg>
