<svg width="165" height="158" viewBox="0 0 165 158" fill="none" xmlns="http://www.w3.org/2000/svg">
<circle cx="92" cy="85" r="72.5" stroke="#CAE7EF"/>
<circle cx="73" cy="73" r="73" fill="#CAE7EF"/>
<circle cx="72.3331" cy="54.0606" r="14.5606" fill="white" stroke="#19AFDD" stroke-width="3"/>
<mask id="path-4-inside-1_510_1281" fill="white">
<path d="M99.9275 107.667C104.202 107.667 107.751 104.161 106.823 99.989C105.375 93.4852 102.103 87.468 97.3178 82.6822C90.6915 76.056 81.7043 72.3333 72.3333 72.3333C62.9624 72.3333 53.9752 76.0559 47.3489 82.6822C42.5632 87.468 39.2921 93.4852 37.8441 99.989C36.9153 104.161 40.4649 107.667 44.7391 107.667L72.3333 107.667H99.9275Z"/>
</mask>
<path d="M99.9275 107.667C104.202 107.667 107.751 104.161 106.823 99.989C105.375 93.4852 102.103 87.468 97.3178 82.6822C90.6915 76.056 81.7043 72.3333 72.3333 72.3333C62.9624 72.3333 53.9752 76.0559 47.3489 82.6822C42.5632 87.468 39.2921 93.4852 37.8441 99.989C36.9153 104.161 40.4649 107.667 44.7391 107.667L72.3333 107.667H99.9275Z" fill="white" stroke="#19AFDD" stroke-width="6" mask="url(#path-4-inside-1_510_1281)"/>
<path d="M80.3333 75.5L72.3333 106" stroke="#19AFDD" stroke-width="3" stroke-linecap="round" stroke-linejoin="round"/>
<path d="M64.3333 75.5L72.3333 106" stroke="#19AFDD" stroke-width="3" stroke-linecap="round" stroke-linejoin="round"/>
<path d="M66.3333 86.4998L56.3333 90.9998L72.3331 104.454" stroke="#19AFDD" stroke-width="3" stroke-linecap="round" stroke-linejoin="round"/>
<path d="M78.333 86.5L88.333 91L72.3332 104.455" stroke="#19AFDD" stroke-width="3" stroke-linecap="round" stroke-linejoin="round"/>
<path d="M54.1313 80.899L61.6263 88.394" stroke="#19AFDD" stroke-width="3" stroke-linecap="round" stroke-linejoin="round"/>
<path d="M89.4644 80.899L82.8333 88.0001" stroke="#19AFDD" stroke-width="3" stroke-linecap="round" stroke-linejoin="round"/>
<path d="M72.0765 105.525L78.7577 75.7683L72.0765 74.4745L65.8333 74.9999L72.0765 105.525Z" fill="#19AFDD"/>
<path fill-rule="evenodd" clip-rule="evenodd" d="M104.978 58.7539C104.978 57.7852 104.193 57 103.224 57C102.255 57 101.47 57.7852 101.47 58.7539V64.1361H96.0871C95.1185 64.1361 94.3333 64.9213 94.3333 65.89C94.3333 66.8586 95.1185 67.6438 96.0871 67.6438H101.47V73.0271C101.47 73.9957 102.255 74.781 103.224 74.781C104.193 74.781 104.978 73.9957 104.978 73.0271V67.6438H110.36C111.329 67.6438 112.114 66.8586 112.114 65.89C112.114 64.9213 111.329 64.1361 110.36 64.1361H104.978V58.7539Z" fill="#19AFDD"/>
<path fill-rule="evenodd" clip-rule="evenodd" d="M45.5695 37.7539C45.5695 36.7852 44.7843 36 43.8156 36C42.847 36 42.0618 36.7852 42.0618 37.7539V40.7282H39.0871C38.1185 40.7282 37.3333 41.5134 37.3333 42.4821C37.3333 43.4507 38.1185 44.2359 39.0871 44.2359H42.0618V47.2107C42.0618 48.1794 42.847 48.9646 43.8156 48.9646C44.7843 48.9646 45.5695 48.1794 45.5695 47.2107V44.2359H48.544C49.5126 44.2359 50.2979 43.4507 50.2979 42.4821C50.2979 41.5134 49.5126 40.7282 48.544 40.7282H45.5695V37.7539Z" fill="#19AFDD"/>
</svg>
