<svg width="165" height="158" viewBox="0 0 165 158" fill="none" xmlns="http://www.w3.org/2000/svg">
<circle cx="92" cy="85" r="72.5" stroke="#CAE7EF"/>
<circle cx="73" cy="73" r="73" fill="#CAE7EF"/>
<path d="M48.0271 44.8498C48.0271 43.843 48.8433 43.0268 49.8501 43.0268H95.5916C96.5984 43.0268 97.4146 43.843 97.4146 44.8498V107.476H48.0271V44.8498Z" fill="white" stroke="#19AFDD" stroke-width="3.04786"/>
<rect x="55.8748" y="61.0342" width="33.5264" height="13.2074" fill="white" stroke="#19AFDD" stroke-width="3.04786"/>
<rect x="64.0022" y="81.3539" width="17.2712" height="25.3988" fill="white" stroke="#19AFDD" stroke-width="3.04786"/>
<path d="M33.5239 62.7004C33.5239 61.6936 34.3401 60.8774 35.3469 60.8774H46.0951V107.476H33.5239V62.7004Z" fill="#19AFDD" stroke="#19AFDD" stroke-width="3.04786"/>
<path d="M99.3469 60.8774H110.095C111.102 60.8774 111.918 61.6936 111.918 62.7004V107.476H99.3469V60.8774Z" fill="#19AFDD" stroke="#19AFDD" stroke-width="3.04786"/>
<circle cx="72.6381" cy="41.2233" r="12.6994" fill="white" stroke="#19AFDD" stroke-width="3.04786"/>
<mask id="path-9-inside-1_510_1224" fill="white">
<path fill-rule="evenodd" clip-rule="evenodd" d="M75.0086 34.1116H70.2675V38.8527H65.5264V43.5938H70.2675V48.335H75.0086V43.5938H79.7497V38.8527H75.0086V34.1116Z"/>
</mask>
<path fill-rule="evenodd" clip-rule="evenodd" d="M75.0086 34.1116H70.2675V38.8527H65.5264V43.5938H70.2675V48.335H75.0086V43.5938H79.7497V38.8527H75.0086V34.1116Z" fill="white"/>
<path d="M70.2675 34.1116V31.0638H67.2196V34.1116H70.2675ZM75.0086 34.1116H78.0564V31.0638H75.0086V34.1116ZM70.2675 38.8527V41.9006H73.3153V38.8527H70.2675ZM65.5264 38.8527V35.8049H62.4785V38.8527H65.5264ZM65.5264 43.5938H62.4785V46.6417H65.5264V43.5938ZM70.2675 43.5938H73.3153V40.546H70.2675V43.5938ZM70.2675 48.335H67.2196V51.3828H70.2675V48.335ZM75.0086 48.335V51.3828H78.0564V48.335H75.0086ZM75.0086 43.5938V40.546H71.9607V43.5938H75.0086ZM79.7497 43.5938V46.6417H82.7976V43.5938H79.7497ZM79.7497 38.8527H82.7976V35.8049H79.7497V38.8527ZM75.0086 38.8527H71.9607V41.9006H75.0086V38.8527ZM70.2675 37.1595H75.0086V31.0638H70.2675V37.1595ZM73.3153 38.8527V34.1116H67.2196V38.8527H73.3153ZM65.5264 41.9006H70.2675V35.8049H65.5264V41.9006ZM68.5742 43.5938V38.8527H62.4785V43.5938H68.5742ZM70.2675 40.546H65.5264V46.6417H70.2675V40.546ZM73.3153 48.335V43.5938H67.2196V48.335H73.3153ZM75.0086 45.2871H70.2675V51.3828H75.0086V45.2871ZM71.9607 43.5938V48.335H78.0564V43.5938H71.9607ZM79.7497 40.546H75.0086V46.6417H79.7497V40.546ZM76.7018 38.8527V43.5938H82.7976V38.8527H76.7018ZM75.0086 41.9006H79.7497V35.8049H75.0086V41.9006ZM71.9607 34.1116V38.8527H78.0564V34.1116H71.9607Z" fill="#19AFDD" mask="url(#path-9-inside-1_510_1224)"/>
</svg>
