<svg width="55" height="55" viewBox="0 0 55 55" fill="none" xmlns="http://www.w3.org/2000/svg">
<circle cx="27.5" cy="27.5" r="27.5" fill="white"/>
<path d="M12 17H16.329C16.8573 17 17.319 17.3565 17.4526 17.8676L21.4507 33.1646C21.5842 33.6757 22.0459 34.0323 22.5742 34.0323H37.9355" stroke="#707070" stroke-width="1.54839" stroke-linecap="round" stroke-linejoin="round"/>
<path d="M41.4192 20.4839H18.1934L20.866 30.4618C21.002 30.9695 21.4621 31.3226 21.9878 31.3226H37.8028C38.3357 31.3226 38.8002 30.9599 38.9294 30.443L41.4192 20.4839Z" stroke="#707070" stroke-width="1.54839" stroke-linecap="round" stroke-linejoin="round"/>
<circle cx="25.355" cy="38.4839" r="1.74194" stroke="#707070" stroke-width="1.54839"/>
<circle cx="34.2573" cy="38.4839" r="1.74194" stroke="#707070" stroke-width="1.54839"/>
<path fill-rule="evenodd" clip-rule="evenodd" d="M30.5806 23.5806C30.5806 23.153 30.234 22.8064 29.8064 22.8064C29.3788 22.8064 29.0322 23.153 29.0322 23.5806V25.0186L27.4832 25.0186C27.0556 25.0186 26.709 25.3652 26.709 25.7928C26.709 26.2204 27.0556 26.567 27.4832 26.567H29.0322V28.2258C29.0322 28.6533 29.3788 28.9999 29.8064 28.9999C30.234 28.9999 30.5806 28.6533 30.5806 28.2258V26.567H32.1283C32.5559 26.567 32.9025 26.2204 32.9025 25.7928C32.9025 25.3652 32.5559 25.0186 32.1283 25.0186L30.5806 25.0186V23.5806Z" fill="#707070"/>
</svg>
