<svg width="80" height="80" viewBox="0 0 80 80" fill="none" xmlns="http://www.w3.org/2000/svg">
<circle cx="40" cy="40" r="40" fill="white"/>
<path d="M27.8877 28.7849C27.8877 28.2894 28.2894 27.8877 28.7849 27.8877H51.2965C51.792 27.8877 52.1937 28.2894 52.1937 28.7849V59.6061H27.8877V28.7849Z" fill="white" stroke="#BFBFBF" stroke-width="1.5"/>
<rect x="31.75" y="36.75" width="16.5" height="6.5" fill="white" stroke="#BFBFBF" stroke-width="1.5"/>
<rect x="35.75" y="46.75" width="8.5" height="12.5" fill="white" stroke="#BFBFBF" stroke-width="1.5"/>
<path d="M20.75 37.57C20.75 37.0745 21.1517 36.6729 21.6472 36.6729H26.9369V59.6062H20.75V37.57Z" fill="#BFBFBF" stroke="#BFBFBF" stroke-width="1.5"/>
<path d="M53.1445 36.6729H58.4342C58.9297 36.6729 59.3314 37.0745 59.3314 37.57V59.6062H53.1445V36.6729Z" fill="#BFBFBF" stroke="#BFBFBF" stroke-width="1.5"/>
<circle cx="40" cy="27" r="6.25" fill="white" stroke="#BFBFBF" stroke-width="1.5"/>
<mask id="path-8-inside-1_510_1194" fill="white">
<path fill-rule="evenodd" clip-rule="evenodd" d="M41.1666 23.5H38.8333V25.833H36.5V28.1664H38.8333V30.5H41.1666V28.1664H43.5V25.833H41.1666V23.5Z"/>
</mask>
<path fill-rule="evenodd" clip-rule="evenodd" d="M41.1666 23.5H38.8333V25.833H36.5V28.1664H38.8333V30.5H41.1666V28.1664H43.5V25.833H41.1666V23.5Z" fill="white"/>
<path d="M38.8333 23.5V22H37.3333V23.5H38.8333ZM41.1666 23.5H42.6666V22H41.1666V23.5ZM38.8333 25.833V27.333H40.3333V25.833H38.8333ZM36.5 25.833V24.333H35V25.833H36.5ZM36.5 28.1664H35V29.6664H36.5V28.1664ZM38.8333 28.1664H40.3333V26.6664H38.8333V28.1664ZM38.8333 30.5H37.3333V32H38.8333V30.5ZM41.1666 30.5V32H42.6666V30.5H41.1666ZM41.1666 28.1664V26.6664H39.6666V28.1664H41.1666ZM43.5 28.1664V29.6664H45V28.1664H43.5ZM43.5 25.833H45V24.333H43.5V25.833ZM41.1666 25.833H39.6666V27.333H41.1666V25.833ZM38.8333 25H41.1666V22H38.8333V25ZM40.3333 25.833V23.5H37.3333V25.833H40.3333ZM36.5 27.333H38.8333V24.333H36.5V27.333ZM38 28.1664V25.833H35V28.1664H38ZM38.8333 26.6664H36.5V29.6664H38.8333V26.6664ZM40.3333 30.5V28.1664H37.3333V30.5H40.3333ZM41.1666 29H38.8333V32H41.1666V29ZM39.6666 28.1664V30.5H42.6666V28.1664H39.6666ZM43.5 26.6664H41.1666V29.6664H43.5V26.6664ZM42 25.833V28.1664H45V25.833H42ZM41.1666 27.333H43.5V24.333H41.1666V27.333ZM39.6666 23.5V25.833H42.6666V23.5H39.6666Z" fill="#BFBFBF" mask="url(#path-8-inside-1_510_1194)"/>
</svg>
