<svg width="55" height="55" viewBox="0 0 55 55" fill="none" xmlns="http://www.w3.org/2000/svg">
<circle cx="27.5" cy="27.5" r="27.5" fill="white"/>
<path d="M39.4718 19.1218C38.7974 18.4491 37.9967 17.9155 37.1154 17.5514C36.2341 17.1874 35.2895 17 34.3355 17C33.3816 17 32.437 17.1874 31.5557 17.5514C30.6744 17.9155 29.8736 18.4491 29.1992 19.1218L27.7996 20.5171L26.4 19.1218C25.0378 17.7637 23.1903 17.0007 21.2638 17.0007C19.3373 17.0007 17.4897 17.7637 16.1275 19.1218C14.7653 20.4799 14 22.3218 14 24.2425C14 26.1631 14.7653 28.0051 16.1275 29.3632L17.5271 30.7586L27.7996 41L38.0722 30.7586L39.4718 29.3632C40.1465 28.6909 40.6817 27.8926 41.0469 27.0139C41.412 26.1353 41.6 25.1936 41.6 24.2425C41.6 23.2914 41.412 22.3497 41.0469 21.471C40.6817 20.5924 40.1465 19.7941 39.4718 19.1218Z" stroke="#707070" stroke-width="1.548" stroke-linecap="round" stroke-linejoin="round"/>
</svg>
