<svg width="80" height="80" viewBox="0 0 80 80" fill="none" xmlns="http://www.w3.org/2000/svg">
<circle cx="40" cy="40" r="40" fill="white"/>
<line x1="19" y1="60" x2="62" y2="60" stroke="#BFBFBF" stroke-width="2" stroke-linecap="round"/>
<path d="M20.176 49.4335C19.8631 49.8886 19.9784 50.5112 20.4335 50.824C20.8886 51.1369 21.5112 51.0216 21.824 50.5665L20.176 49.4335ZM32 34L32.5039 33.1362C32.0517 32.8724 31.4725 33.0021 31.176 33.4335L32 34ZM44 41L43.4961 41.8638C43.9666 42.1382 44.5702 41.9857 44.8538 41.5206L44 41ZM57.4719 20.2644C57.3417 19.7277 56.8011 19.398 56.2644 19.5281L47.5177 21.6486C46.981 21.7787 46.6514 22.3193 46.7815 22.856C46.9116 23.3927 47.4522 23.7224 47.9889 23.5923L55.7637 21.7075L57.6486 29.4823C57.7787 30.019 58.3193 30.3486 58.856 30.2185C59.3927 30.0884 59.7224 29.5478 59.5923 29.0111L57.4719 20.2644ZM21.824 50.5665L32.824 34.5665L31.176 33.4335L20.176 49.4335L21.824 50.5665ZM31.4961 34.8638L43.4961 41.8638L44.5039 40.1362L32.5039 33.1362L31.4961 34.8638ZM44.8538 41.5206L57.3538 21.0206L55.6462 19.9794L43.1462 40.4794L44.8538 41.5206Z" fill="#BFBFBF"/>
<circle cx="32" cy="34" r="3" fill="white" stroke="#BFBFBF" stroke-width="2"/>
<circle cx="44" cy="41" r="3" fill="white" stroke="#BFBFBF" stroke-width="2"/>
<circle cx="22" cy="49" r="3" fill="white" stroke="#BFBFBF" stroke-width="2"/>
</svg>
