<svg width="80" height="80" viewBox="0 0 80 80" fill="none" xmlns="http://www.w3.org/2000/svg">
<circle cx="40" cy="40" r="40" fill="white"/>
<path d="M16 46.8879L18.6734 44.2145C19.2754 43.6126 20.2512 43.6126 20.8532 44.2145L22.3976 45.7589M30.1124 61.0003L32.7858 58.3269C33.3877 57.725 33.3877 56.7491 32.7858 56.1472L31.994 55.3554M22.3976 45.7589L27.5555 40.7368C28.7941 39.5308 30.5686 39.052 32.2456 39.4713L46.259 42.9746C46.6539 43.0733 47.0215 43.26 47.3343 43.5206L47.5043 43.6623C47.8192 43.9247 48.0461 44.2783 48.154 44.6737V44.6737C48.3894 45.537 48.0224 46.4533 47.2552 46.9137V46.9137C46.8764 47.141 46.4329 47.2363 45.9942 47.1847L37.0745 46.1353M22.3976 45.7589L31.994 55.3554M31.994 55.3554L35.048 52.7836C35.38 52.5041 35.8144 52.3774 36.2445 52.4348L45.2764 53.639C46.2957 53.7749 47.3292 53.5306 48.1797 52.9527L63.2206 42.7321C63.8947 42.2741 64.2982 41.512 64.2982 40.697V40.697C64.2982 39.3382 63.1966 38.2366 61.8378 38.2366H61.5359C61.0526 38.2366 60.5777 38.3634 60.1588 38.6043L52.2982 43.1246" stroke="#BFBFBF" stroke-width="2" stroke-linecap="round" stroke-linejoin="round"/>
<path fill-rule="evenodd" clip-rule="evenodd" d="M37.1488 21.8633C37.1488 21.311 36.7011 20.8633 36.1488 20.8633C35.5966 20.8633 35.1488 21.311 35.1488 21.8633V27.2144H29.7983C29.2461 27.2144 28.7983 27.6621 28.7983 28.2144C28.7983 28.7667 29.2461 29.2144 29.7983 29.2144H35.1488V34.5644C35.1488 35.1167 35.5966 35.5644 36.1488 35.5644C36.7011 35.5644 37.1488 35.1167 37.1488 34.5644V29.2144H42.4995C43.0518 29.2144 43.4995 28.7667 43.4995 28.2144C43.4995 27.6621 43.0518 27.2144 42.4995 27.2144H37.1488V21.8633Z" fill="#BFBFBF"/>
<path fill-rule="evenodd" clip-rule="evenodd" d="M47.6128 19.5C47.6128 19.0858 47.277 18.75 46.8628 18.75C46.4486 18.75 46.1128 19.0858 46.1128 19.5V20.8664H44.7461C44.3319 20.8664 43.9961 21.2022 43.9961 21.6164C43.9961 22.0306 44.3319 22.3664 44.7461 22.3664H46.1128V23.7337C46.1128 24.1479 46.4486 24.4837 46.8628 24.4837C47.277 24.4837 47.6128 24.1479 47.6128 23.7337V22.3664H48.9798C49.394 22.3664 49.7298 22.0306 49.7298 21.6164C49.7298 21.2022 49.394 20.8664 48.9798 20.8664H47.6128V19.5Z" fill="#BFBFBF"/>
<path fill-rule="evenodd" clip-rule="evenodd" d="M52.7195 27.5073C52.7195 26.955 52.2717 26.5073 51.7195 26.5073C51.1672 26.5073 50.7195 26.955 50.7195 27.5073V30.7414H47.4858C46.9336 30.7414 46.4858 31.1891 46.4858 31.7414C46.4858 32.2937 46.9336 32.7414 47.4858 32.7414H50.7195V35.9748C50.7195 36.527 51.1672 36.9748 51.7195 36.9748C52.2717 36.9748 52.7195 36.527 52.7195 35.9748V32.7414H55.9533C56.5056 32.7414 56.9533 32.2937 56.9533 31.7414C56.9533 31.1891 56.5056 30.7414 55.9533 30.7414H52.7195V27.5073Z" fill="#BFBFBF"/>
</svg>
