<svg width="80" height="80" viewBox="0 0 80 80" fill="none" xmlns="http://www.w3.org/2000/svg">
<circle cx="40" cy="40" r="40" fill="white"/>
<path fill-rule="evenodd" clip-rule="evenodd" d="M32.1783 49C41.6658 49 49.3569 43.1797 49.3569 36C49.3569 28.8203 41.6658 23 32.1783 23C22.6909 23 14.9998 28.8203 14.9998 36C14.9998 38.4134 15.8688 40.6733 17.383 42.6101L15.1375 47.5868C14.9117 48.0872 15.3887 48.6172 15.91 48.4452L21.9581 46.45C24.8141 48.0523 28.35 49 32.1783 49Z" fill="#BFBFBF"/>
<mask id="path-3-inside-1_397_249" fill="white">
<path fill-rule="evenodd" clip-rule="evenodd" d="M45.5 58C35.2827 58 27 51.732 27 44C27 36.268 35.2827 30 45.5 30C55.7173 30 64 36.268 64 44C64 46.8285 62.8916 49.4612 60.9854 51.6627L63.3928 56.6265C63.6508 57.1584 63.1532 57.7432 62.5868 57.5736L55.9106 55.5746C52.9449 57.1051 49.3605 58 45.5 58Z"/>
</mask>
<path fill-rule="evenodd" clip-rule="evenodd" d="M45.5 58C35.2827 58 27 51.732 27 44C27 36.268 35.2827 30 45.5 30C55.7173 30 64 36.268 64 44C64 46.8285 62.8916 49.4612 60.9854 51.6627L63.3928 56.6265C63.6508 57.1584 63.1532 57.7432 62.5868 57.5736L55.9106 55.5746C52.9449 57.1051 49.3605 58 45.5 58Z" fill="white"/>
<path d="M60.9854 51.6627L59.6358 52.3172L59.2045 51.428L59.8514 50.6808L60.9854 51.6627ZM63.3928 56.6265L62.0432 57.2811L62.0432 57.2811L63.3928 56.6265ZM62.5868 57.5736L63.0171 56.1366L63.0171 56.1366L62.5868 57.5736ZM55.9106 55.5746L55.2227 54.2416L55.7608 53.9639L56.3409 54.1376L55.9106 55.5746ZM28.5 44C28.5 47.2938 30.2606 50.3854 33.3237 52.7034C36.3877 55.0221 40.6877 56.5 45.5 56.5V59.5C40.095 59.5 35.145 57.8439 31.5134 55.0956C27.8808 52.3466 25.5 48.4382 25.5 44H28.5ZM45.5 31.5C40.6877 31.5 36.3877 32.9779 33.3237 35.2966C30.2606 37.6146 28.5 40.7062 28.5 44H25.5C25.5 39.5618 27.8808 35.6534 31.5134 32.9044C35.145 30.1561 40.095 28.5 45.5 28.5V31.5ZM62.5 44C62.5 40.7062 60.7394 37.6146 57.6763 35.2966C54.6123 32.9779 50.3123 31.5 45.5 31.5V28.5C50.905 28.5 55.855 30.1561 59.4866 32.9044C63.1192 35.6534 65.5 39.5618 65.5 44H62.5ZM59.8514 50.6808C61.5563 48.7118 62.5 46.4181 62.5 44H65.5C65.5 47.239 64.2268 50.2105 62.1194 52.6445L59.8514 50.6808ZM62.0432 57.2811L59.6358 52.3172L62.3351 51.0081L64.7425 55.9719L62.0432 57.2811ZM63.0171 56.1366C62.3328 55.9317 61.7315 56.6383 62.0432 57.2811L64.7425 55.9719C65.5702 57.6786 63.9736 59.5546 62.1566 59.0106L63.0171 56.1366ZM56.3409 54.1376L63.0171 56.1366L62.1566 59.0106L55.4803 57.0115L56.3409 54.1376ZM45.5 56.5C49.1322 56.5 52.4792 55.6575 55.2227 54.2416L56.5985 56.9075C53.4106 58.5528 49.5889 59.5 45.5 59.5V56.5Z" fill="#BFBFBF" mask="url(#path-3-inside-1_397_249)"/>
<path fill-rule="evenodd" clip-rule="evenodd" d="M38 40.25C37.5858 40.25 37.25 40.5858 37.25 41C37.25 41.4142 37.5858 41.75 38 41.75H53C53.4142 41.75 53.75 41.4142 53.75 41C53.75 40.5858 53.4142 40.25 53 40.25H38ZM38 45.25C37.5858 45.25 37.25 45.5858 37.25 46C37.25 46.4142 37.5858 46.75 38 46.75H53C53.4142 46.75 53.75 46.4142 53.75 46C53.75 45.5858 53.4142 45.25 53 45.25H38Z" fill="#BFBFBF"/>
</svg>
