<svg width="15" height="15" viewBox="0 0 15 15" fill="none" xmlns="http://www.w3.org/2000/svg">
<path fill-rule="evenodd" clip-rule="evenodd" d="M11.7696 6.3848C11.7696 9.35874 9.35874 11.7696 6.3848 11.7696C3.41086 11.7696 1 9.35874 1 6.3848C1 3.41086 3.41086 1 6.3848 1C9.35874 1 11.7696 3.41086 11.7696 6.3848ZM12.7696 6.3848C12.7696 9.91103 9.91103 12.7696 6.3848 12.7696C2.85857 12.7696 0 9.91103 0 6.3848C0 2.85857 2.85857 0 6.3848 0C9.91103 0 12.7696 2.85857 12.7696 6.3848ZM11.9964 11.2893C11.8012 11.094 11.4846 11.094 11.2893 11.2893C11.0941 11.4845 11.0941 11.8011 11.2893 11.9964L13.9183 14.6254C14.1136 14.8207 14.4302 14.8207 14.6255 14.6254C14.8207 14.4302 14.8207 14.1136 14.6255 13.9183L11.9964 11.2893Z" fill="#1E1E1E"/>
</svg>
