<svg width="204" height="47" viewBox="0 0 204 47" fill="none" xmlns="http://www.w3.org/2000/svg">
<path d="M42.805 22.8318H35.0088V46.1089H42.805V22.8318Z" fill="#19AFDD"/>
<path d="M24.6134 11.4343C22.1632 11.4343 20.1956 13.4019 20.1956 15.8522V23.0172C22.3117 24.0567 23.7595 26.247 23.7595 28.7715C23.7595 31.296 22.3117 33.4492 20.1956 34.5258V41.6909C20.1956 44.1411 22.1632 46.1087 24.6134 46.1087C27.0636 46.1087 29.0312 44.1411 29.0312 41.6909V15.8522C29.0312 13.4019 27.0636 11.4343 24.6134 11.4343Z" fill="#19AFDD"/>
<path d="M42.805 15.3324C42.805 17.4856 41.0601 19.2305 38.9069 19.2305C36.7536 19.2305 35.0088 17.4856 35.0088 15.3324C35.0088 13.1792 36.7536 11.4343 38.9069 11.4343C41.0601 11.4343 42.805 13.1792 42.805 15.3324Z" fill="#19AFDD"/>
<path d="M67.1585 35.0084C66.3417 37.7185 63.8172 39.6861 60.8473 39.6861C57.2091 39.6861 54.2391 36.7162 54.2391 33.078C54.2391 29.4397 57.2091 26.4698 60.8473 26.4698C63.8172 26.4698 66.3417 28.4374 67.1585 31.1475H74.5834C73.6553 24.3908 67.8638 19.2305 60.8473 19.2305C53.1996 19.2305 46.9626 25.4303 46.9626 33.1151C46.9626 40.7999 53.1625 46.9997 60.8473 46.9997C67.8638 46.9997 73.6182 41.8022 74.5834 35.0827H67.1585V35.0084Z" fill="#19AFDD"/>
<path d="M0 41.6909C0 44.1411 1.96761 46.1087 4.41783 46.1087C6.86806 46.1087 8.83567 44.1411 8.83567 41.6909V33.1894H17.3001C19.7503 33.1894 21.7179 31.2217 21.7179 28.7715C21.7179 26.3213 19.7503 24.3537 17.3001 24.3537H8.83567V15.8522C8.83567 13.4019 6.86806 11.4343 4.41783 11.4343C1.96761 11.4343 0 13.4019 0 15.8522L0 41.6909Z" fill="#19AFDD"/>
<path d="M112.451 33.078V46.1087H119.727V33.078C119.727 29.4398 122.66 26.4698 126.298 26.4698V19.1934C118.651 19.1934 112.414 25.3932 112.414 33.078H112.451Z" fill="#19AFDD"/>
<path d="M158.225 46.1087C156.48 44.3639 156.146 40.2059 156.146 33.078C156.146 33.078 156.146 33.078 156.146 33.0409V11.4343H148.87V20.864C146.902 19.7874 144.675 19.1934 142.262 19.1934C134.614 19.1934 128.377 25.3932 128.377 33.078C128.377 40.7628 134.577 46.9626 142.262 46.9626C145.38 46.9626 148.239 45.9602 150.54 44.2154C152.656 45.6632 154.884 46.1087 158.188 46.1087H158.225ZM142.299 39.649C138.66 39.649 135.728 36.7162 135.728 33.078C135.728 29.4398 138.698 26.4698 142.299 26.4698C145.9 26.4698 148.907 29.4026 148.907 33.078C148.907 36.7533 145.937 39.649 142.299 39.649Z" fill="#19AFDD"/>
<path d="M108.552 46.1087C106.807 44.3639 106.473 40.2059 106.473 33.078C106.473 25.4303 100.274 19.1934 92.5887 19.1934C84.9039 19.1934 78.7041 25.3932 78.7041 33.078C78.7041 40.7628 84.9039 46.9626 92.5887 46.9626C95.7072 46.9626 98.5658 45.9602 100.868 44.2154C102.984 45.6632 105.211 46.1087 108.515 46.1087H108.552ZM92.6258 39.649C88.9876 39.649 86.0177 36.7162 86.0177 33.078C86.0177 29.4398 88.9876 26.4698 92.6258 26.4698C96.2641 26.4698 99.1969 29.4026 99.1969 33.078C99.1969 36.7533 96.2641 39.649 92.6258 39.649Z" fill="#19AFDD"/>
<path d="M164.351 28.1777C163.051 29.5141 162.457 31.0363 162.086 32.2985V46.0717H169.882V25.3933C168.249 25.6161 166.318 26.0987 164.351 28.1405V28.1777Z" fill="#19AFDD"/>
<path d="M181.094 20.3443C177.828 23.7226 172.519 22.8316 170.106 23.0544C167.767 23.2771 163.869 24.3538 162.495 27.3237C162.347 27.6578 162.124 27.5093 162.124 27.2866V8.20454C162.124 7.57342 162.198 6.53393 162.309 5.93994C162.718 4.04658 163.757 2.52447 165.094 1.52211C166.43 0.519745 168.064 0 169.734 0C170.291 0 170.848 0.0742493 171.405 0.185623C172.296 0.371246 173.076 0.668243 173.744 1.07661C175.192 1.93048 176.157 3.19272 176.677 4.60345C177.085 5.71719 177.234 6.90518 177.085 8.05604C178.013 8.05604 179.461 8.13029 181.094 9.31828C183.359 10.9146 185.03 16.2235 181.094 20.3814V20.3443Z" fill="#19AFDD"/>
<path d="M24.6134 11.4343C22.1632 11.4343 20.1956 13.4019 20.1956 15.8522V23.0172C22.3117 24.0567 23.7595 26.247 23.7595 28.7715C23.7595 31.296 22.3117 33.4492 20.1956 34.5258V41.6909C20.1956 44.1411 22.1632 46.1087 24.6134 46.1087C27.0636 46.1087 29.0312 44.1411 29.0312 41.6909V15.8522C29.0312 13.4019 27.0636 11.4343 24.6134 11.4343Z" fill="#19AFDD"/>
<path d="M0 41.6909C0 44.1411 1.96761 46.1087 4.41783 46.1087C6.86806 46.1087 8.83567 44.1411 8.83567 41.6909V33.1894H17.3001C19.7503 33.1894 21.7179 31.2217 21.7179 28.7715C21.7179 26.3213 19.7503 24.3537 17.3001 24.3537H8.83567V15.8522C8.83567 13.4019 6.86806 11.4343 4.41783 11.4343C1.96761 11.4343 0 13.4019 0 15.8522L0 41.6909Z" fill="#19AFDD"/>
<path d="M24.6134 11.4343C22.1632 11.4343 20.1956 13.4019 20.1956 15.8522V23.0172C22.3117 24.0567 23.7595 26.247 23.7595 28.7715C23.7595 31.296 22.3117 33.4492 20.1956 34.5258V41.6909C20.1956 44.1411 22.1632 46.1087 24.6134 46.1087C27.0636 46.1087 29.0312 44.1411 29.0312 41.6909V15.8522C29.0312 13.4019 27.0636 11.4343 24.6134 11.4343Z" fill="#19AFDD"/>
<path d="M0 41.6909C0 44.1411 1.96761 46.1087 4.41783 46.1087C6.86806 46.1087 8.83567 44.1411 8.83567 41.6909V33.1894H17.3001C19.7503 33.1894 21.7179 31.2217 21.7179 28.7715C21.7179 26.3213 19.7503 24.3537 17.3001 24.3537H8.83567V15.8522C8.83567 13.4019 6.86806 11.4343 4.41783 11.4343C1.96761 11.4343 0 13.4019 0 15.8522L0 41.6909Z" fill="#19AFDD"/>
<path d="M200.844 29.8107H195.202V24.1678C195.202 22.4229 193.791 21.0122 192.046 21.0122C190.301 21.0122 188.89 22.4229 188.89 24.1678V29.8107H183.247C181.503 29.8107 180.092 31.2215 180.092 32.9663C180.092 34.7112 181.503 36.1219 183.247 36.1219H188.89V41.7649C188.89 43.5097 190.301 44.9205 192.046 44.9205C193.791 44.9205 195.202 43.5097 195.202 41.7649V36.1219H200.844C202.589 36.1219 204 34.7112 204 32.9663C204 31.2215 202.589 29.8107 200.844 29.8107Z" fill="#19AFDD"/>
</svg>
